# xmcd
#
# Track frame offsets: 
#        150
#        17662
#        27384
#        48100
#        61160
#        77101
#        96696
#        115659
#        129441
#        148166
#        158675
#        179643
#
# Disc length: 2578 seconds
#
# Revision: 0
# Processed by: cddbd v1.5.2PL0 Copyright (c) Steve Scherf et al.
# Submitted via: ExactAudioCopy v0.99pb4
#
DISCID=9f0a100c
DTITLE=Chase Tthe Sun - Chase Tthe Sun
DYEAR=2007
DGENRE=Blues
TTITLE0=You Gotta Go
TTITLE1=I'm Going To Hell
TTITLE2=Lady On My Mind
TTITLE3=Instrumental 
TTITLE4=Last Goodbye
TTITLE5=This Lonely Road
TTITLE6=In My Hands
TTITLE7=Great Mystery
TTITLE8=Gypsy Woman
TTITLE9=Catch the Rabbit
TTITLE10=Come Back Around
TTITLE11=Farewell
EXTD=
EXTT0=
EXTT1=
EXTT2=
EXTT3=
EXTT4=
EXTT5=
EXTT6=
EXTT7=
EXTT8=
EXTT9=
EXTT10=
EXTT11=
PLAYORDER=
